{
    "asset" : {
        "generator" : "Khronos glTF Blender I/O v3.2.43",
        "version" : "2.0"
    },
    "scene" : 0,
    "scenes" : [
        {
            "name" : "Scene",
            "nodes" : [
                0,
                1
            ]
        }
    ],
    "nodes" : [
        {
            "mesh" : 0,
            "name" : "TQ_ARD-node",
            "rotation" : [
                0.5000000596046448,
                -0.5,
                0.5,
                0.5000000596046448
            ],
            "translation" : [
                0.0011326074600219727,
                0.0009940862655639648,
                0.00140361487865448
            ]
        },
        {
            "mesh" : 1,
            "name" : "Plane",
            "translation" : [
                -0.0957028865814209,
                -0.14978842437267303,
                -0.1587480902671814
            ]
        }
    ],
    "materials" : [
        {
            "doubleSided" : true,
            "name" : "TQ_ARD_front",
            "pbrMetallicRoughness" : {
                "baseColorTexture" : {
                    "index" : 0
                },
                "metallicFactor" : 0,
                "roughnessFactor" : 0.5
            }
        },
        {
            "doubleSided" : true,
            "name" : "TQ_ARD_back",
            "pbrMetallicRoughness" : {
                "baseColorFactor" : [
                    0.996078372001648,
                    0.9019607901573181,
                    0.6627451181411743,
                    1
                ],
                "metallicFactor" : 0,
                "roughnessFactor" : 0.5
            }
        },
        {
            "doubleSided" : true,
            "name" : "TQ_ARD_edge",
            "pbrMetallicRoughness" : {
                "baseColorTexture" : {
                    "index" : 1
                },
                "metallicFactor" : 0,
                "roughnessFactor" : 0.5
            }
        },
        {
            "doubleSided" : true,
            "name" : "old-concrete-pavement---01",
            "pbrMetallicRoughness" : {}
        }
    ],
    "meshes" : [
        {
            "name" : "TQ_ARD-geom",
            "primitives" : [
                {
                    "attributes" : {
                        "POSITION" : 0,
                        "NORMAL" : 1,
                        "TEXCOORD_0" : 2
                    },
                    "indices" : 3,
                    "material" : 0
                },
                {
                    "attributes" : {
                        "POSITION" : 4,
                        "NORMAL" : 5,
                        "TEXCOORD_0" : 6
                    },
                    "indices" : 7,
                    "material" : 1
                },
                {
                    "attributes" : {
                        "POSITION" : 8,
                        "NORMAL" : 9,
                        "TEXCOORD_0" : 10
                    },
                    "indices" : 11,
                    "material" : 2
                }
            ]
        },
        {
            "name" : "Plane.002",
            "primitives" : [
                {
                    "attributes" : {
                        "POSITION" : 12,
                        "NORMAL" : 13,
                        "TEXCOORD_0" : 14
                    },
                    "indices" : 15,
                    "material" : 3
                }
            ]
        }
    ],
    "textures" : [
        {
            "sampler" : 0,
            "source" : 0
        },
        {
            "sampler" : 0,
            "source" : 1
        }
    ],
    "images" : [
        {
            "bufferView" : 4,
            "mimeType" : "image/png",
            "name" : "2-01"
        },
        {
            "bufferView" : 13,
            "mimeType" : "image/png",
            "name" : "TQ_ARD-I1"
        }
    ],
    "accessors" : [
        {
            "bufferView" : 0,
            "componentType" : 5126,
            "count" : 843,
            "max" : [
                0.11220934987068176,
                0.27130216360092163,
                0.15014547109603882
            ],
            "min" : [
                -0.1089649349451065,
                -0.27887269854545593,
                -0.153833270072937
            ],
            "type" : "VEC3"
        },
        {
            "bufferView" : 1,
            "componentType" : 5126,
            "count" : 843,
            "type" : "VEC3"
        },
        {
            "bufferView" : 2,
            "componentType" : 5126,
            "count" : 843,
            "type" : "VEC2"
        },
        {
            "bufferView" : 3,
            "componentType" : 5123,
            "count" : 2124,
            "type" : "SCALAR"
        },
        {
            "bufferView" : 5,
            "componentType" : 5126,
            "count" : 627,
            "max" : [
                0.11061770468950272,
                0.26958608627319336,
                0.1483226716518402
            ],
            "min" : [
                -0.10709778964519501,
                -0.2770425081253052,
                -0.1506601870059967
            ],
            "type" : "VEC3"
        },
        {
            "bufferView" : 6,
            "componentType" : 5126,
            "count" : 627,
            "type" : "VEC3"
        },
        {
            "bufferView" : 7,
            "componentType" : 5126,
            "count" : 627,
            "type" : "VEC2"
        },
        {
            "bufferView" : 8,
            "componentType" : 5123,
            "count" : 2124,
            "type" : "SCALAR"
        },
        {
            "bufferView" : 9,
            "componentType" : 5126,
            "count" : 532,
            "max" : [
                0.11125577241182327,
                0.2703460454940796,
                0.15014547109603882
            ],
            "min" : [
                -0.10896484553813934,
                -0.27773019671440125,
                -0.153833270072937
            ],
            "type" : "VEC3"
        },
        {
            "bufferView" : 10,
            "componentType" : 5126,
            "count" : 532,
            "type" : "VEC3"
        },
        {
            "bufferView" : 11,
            "componentType" : 5126,
            "count" : 532,
            "type" : "VEC2"
        },
        {
            "bufferView" : 12,
            "componentType" : 5123,
            "count" : 1020,
            "type" : "SCALAR"
        },
        {
            "bufferView" : 14,
            "componentType" : 5126,
            "count" : 4,
            "max" : [
                1,
                0,
                1
            ],
            "min" : [
                -1,
                0,
                -1
            ],
            "type" : "VEC3"
        },
        {
            "bufferView" : 15,
            "componentType" : 5126,
            "count" : 4,
            "type" : "VEC3"
        },
        {
            "bufferView" : 16,
            "componentType" : 5126,
            "count" : 4,
            "type" : "VEC2"
        },
        {
            "bufferView" : 17,
            "componentType" : 5123,
            "count" : 6,
            "type" : "SCALAR"
        }
    ],
    "bufferViews" : [
        {
            "buffer" : 0,
            "byteLength" : 10116,
            "byteOffset" : 0
        },
        {
            "buffer" : 0,
            "byteLength" : 10116,
            "byteOffset" : 10116
        },
        {
            "buffer" : 0,
            "byteLength" : 6744,
            "byteOffset" : 20232
        },
        {
            "buffer" : 0,
            "byteLength" : 4248,
            "byteOffset" : 26976
        },
        {
            "buffer" : 0,
            "byteLength" : 524737,
            "byteOffset" : 31224
        },
        {
            "buffer" : 0,
            "byteLength" : 7524,
            "byteOffset" : 555964
        },
        {
            "buffer" : 0,
            "byteLength" : 7524,
            "byteOffset" : 563488
        },
        {
            "buffer" : 0,
            "byteLength" : 5016,
            "byteOffset" : 571012
        },
        {
            "buffer" : 0,
            "byteLength" : 4248,
            "byteOffset" : 576028
        },
        {
            "buffer" : 0,
            "byteLength" : 6384,
            "byteOffset" : 580276
        },
        {
            "buffer" : 0,
            "byteLength" : 6384,
            "byteOffset" : 586660
        },
        {
            "buffer" : 0,
            "byteLength" : 4256,
            "byteOffset" : 593044
        },
        {
            "buffer" : 0,
            "byteLength" : 2040,
            "byteOffset" : 597300
        },
        {
            "buffer" : 0,
            "byteLength" : 767,
            "byteOffset" : 599340
        },
        {
            "buffer" : 0,
            "byteLength" : 48,
            "byteOffset" : 600108
        },
        {
            "buffer" : 0,
            "byteLength" : 48,
            "byteOffset" : 600156
        },
        {
            "buffer" : 0,
            "byteLength" : 32,
            "byteOffset" : 600204
        },
        {
            "buffer" : 0,
            "byteLength" : 12,
            "byteOffset" : 600236
        }
    ],
    "samplers" : [
        {
            "magFilter" : 9729,
            "minFilter" : 9987
        }
    ],
    "buffers" : [
        {
            "byteLength" : 600248,
            "uri" : "data:application/octet-stream;base64,"
        }
    ]
}
